<svg width="640" height="164" viewBox="0 0 640 164" fill="none" xmlns="http://www.w3.org/2000/svg">
  <rect x="8" y="18" width="128" height="128" rx="34" fill="#0B1220" />
  <path
    d="M40 62C40 56.4772 44.4772 52 50 52H81C86.5228 52 91 56.4772 91 62V85C91 96.598 81.598 106 70 106H61C49.402 106 40 96.598 40 85V62Z"
    fill="#F8FAFC"
  />
  <path
    d="M89 62H96.5C103.404 62 109 67.5964 109 74.5C109 81.4036 103.404 87 96.5 87H89"
    stroke="#F8FAFC"
    stroke-width="7"
    stroke-linecap="round"
  />
  <path d="M52 43C54.4 36 58.5 32 64 30" stroke="#8EB3FF" stroke-width="6" stroke-linecap="round" />
  <path d="M70 43C72 37.5 75.4 33.8 80 32" stroke="#8EB3FF" stroke-width="6" stroke-linecap="round" />
  <circle cx="67.5" cy="74" r="18" stroke="#265CD1" stroke-width="8" />
  <path d="M77.5 84L87 94" stroke="#265CD1" stroke-width="8" stroke-linecap="round" />
  <circle cx="84.5" cy="57.5" r="6.5" fill="#265CD1" />
  <rect x="77" y="53" width="15" height="9" rx="4.5" fill="#1F2937" />
  <text x="164" y="82" fill="#F8FAFC" font-family="Space Grotesk, Arial, sans-serif" font-size="62" font-weight="700">
    RoboQC
  </text>
  <text x="166" y="118" fill="#7AA2FF" font-family="IBM Plex Mono, Arial, monospace" font-size="22" font-weight="600" letter-spacing="0.16em">
    POWERED BY ROMEO FLEXVISION
  </text>
</svg>
