<svg width="128" height="128" viewBox="0 0 128 128" fill="none" xmlns="http://www.w3.org/2000/svg">
  <defs>
    <linearGradient id="bg" x1="16" y1="12" x2="112" y2="116" gradientUnits="userSpaceOnUse">
      <stop stop-color="#0B1220" />
      <stop offset="1" stop-color="#060B16" />
    </linearGradient>
    <linearGradient id="stroke" x1="28" y1="28" x2="96" y2="96" gradientUnits="userSpaceOnUse">
      <stop stop-color="#42D8FF" />
      <stop offset="1" stop-color="#8BE8FF" />
    </linearGradient>
  </defs>
  <rect x="4" y="4" width="120" height="120" rx="32" fill="url(#bg)" />
  <text x="24" y="54" fill="#FFFFFF" font-family="Inter, Arial, sans-serif" font-size="34" font-style="italic" font-weight="800">
    RF
  </text>
  <path d="M76 42C92 42 104 52 112 64C104 76 92 86 76 86C60 86 48 76 40 64C48 52 60 42 76 42Z" stroke="url(#stroke)" stroke-width="5" />
  <path d="M76 50C86 50 94 56 99 64C94 72 86 78 76 78C66 78 58 72 53 64C58 56 66 50 76 50Z" stroke="url(#stroke)" stroke-width="4" />
  <circle cx="76" cy="64" r="7" fill="#FFD95C" />
</svg>
